<?xml version="1.0" encoding="UTF-8"?>
<!DOCTYPE svg PUBLIC "-//W3C//DTD SVG 1.1//EN" "http://www.w3.org/Graphics/SVG/1.1/DTD/svg11.dtd">
<svg xmlns="http://www.w3.org/2000/svg" version="1.1" width="48px" height="48px" style="shape-rendering:geometricPrecision; text-rendering:geometricPrecision; image-rendering:optimizeQuality; fill-rule:evenodd; clip-rule:evenodd" xmlns:xlink="http://www.w3.org/1999/xlink">
<g><path style="opacity:0.906" fill="#cbd5e1" d="M 14.5,5.5 C 22.84,5.3336 31.1733,5.50027 39.5,6C 40,6.5 40.5,7 41,7.5C 41.6667,18.1667 41.6667,28.8333 41,39.5C 40.5,40 40,40.5 39.5,41C 31.1667,41.6667 22.8333,41.6667 14.5,41C 14,40.5 13.5,40 13,39.5C 12.5014,35.8484 12.3347,32.1817 12.5,28.5C 13.5,28.5 14.5,28.5 15.5,28.5C 15.3367,30.8568 15.5034,33.1902 16,35.5C 16.5,36.6667 17.3333,37.5 18.5,38C 24.1667,38.6667 29.8333,38.6667 35.5,38C 36.6667,37.5 37.5,36.6667 38,35.5C 38.6667,27.5 38.6667,19.5 38,11.5C 37.5,10.3333 36.6667,9.5 35.5,9C 29.8333,8.33333 24.1667,8.33333 18.5,9C 17.3333,9.5 16.5,10.3333 16,11.5C 15.5034,13.8098 15.3367,16.1432 15.5,18.5C 14.5,18.5 13.5,18.5 12.5,18.5C 11.9749,13.8602 12.6416,9.52691 14.5,5.5 Z"/></g>
<g><path style="opacity:0.739" fill="#cbd5e1" d="M 22.5,15.5 C 34.5,20.8333 34.5,26.1667 22.5,31.5C 22.178,29.2776 22.8446,27.4443 24.5,26C 18.1754,25.5005 11.8421,25.3338 5.5,25.5C 5.5,24.1667 5.5,22.8333 5.5,21.5C 11.8421,21.6662 18.1754,21.4995 24.5,21C 22.8446,19.5557 22.178,17.7224 22.5,15.5 Z"/></g>
</svg>
