<?xml version="1.0" standalone="no"?>
<!DOCTYPE svg PUBLIC "-//W3C//DTD SVG 20010904//EN"
 "http://www.w3.org/TR/2001/REC-SVG-20010904/DTD/svg10.dtd">
<svg version="1.0" xmlns="http://www.w3.org/2000/svg"
 width="500.000000pt" height="500.000000pt" viewBox="0 0 500.000000 500.000000"
 preserveAspectRatio="xMidYMid meet">

<g transform="translate(0.000000,500.000000) scale(0.100000,-0.100000)"
fill="#fff" stroke="none">
<path d="M2449 3482 l-34 -30 -3 -196 -3 -197 -126 3 -126 3 -97 168 c-54 93
-107 178 -119 190 -18 18 -35 22 -118 25 -67 2 -106 -1 -122 -10 -31 -16 -105
-148 -471 -833 -23 -44 -130 -240 -236 -436 -138 -253 -194 -366 -194 -388 0
-23 9 -42 29 -62 l29 -29 273 0 272 0 31 33 c17 19 51 70 76 116 28 51 53 84
65 87 11 2 348 3 749 2 l730 -3 63 -95 c35 -52 73 -103 84 -112 19 -16 49 -18
301 -18 l280 0 30 30 c45 46 36 81 -57 231 -43 68 -116 186 -162 261 l-83 138
61 72 c67 81 119 179 146 278 23 85 23 264 0 335 l-17 50 123 115 c67 63 149
141 182 172 l60 58 -182 0 -183 0 0 -42 c0 -35 -7 -51 -38 -87 l-38 -44 -70
57 c-81 67 -198 127 -310 158 -72 20 -107 22 -420 26 l-342 4 -33 -30z m745
-182 c105 -27 246 -109 246 -143 0 -7 -44 -38 -97 -70 l-96 -59 -67 31 c-64
30 -71 31 -208 31 l-142 0 0 -144 0 -144 -27 -10 c-187 -72 -406 -153 -408
-149 -1 1 -23 40 -50 87 -26 47 -55 95 -63 108 l-15 23 158 -2 c122 -1 160 2
166 13 5 7 9 111 9 231 l0 217 258 0 c225 0 269 -3 336 -20z m-1302 -152 c36
-62 100 -176 143 -253 42 -77 94 -169 115 -205 86 -150 310 -566 310 -576 0
-2 -226 -4 -503 -4 l-503 0 -65 -112 -65 -113 -132 -3 c-73 -1 -132 1 -132 5
0 4 34 71 76 148 42 77 96 178 121 225 25 47 58 108 73 135 15 28 76 140 135
250 328 610 339 630 355 620 4 -3 37 -56 72 -117z m1658 -262 c0 -137 -50
-257 -149 -357 -31 -30 -77 -65 -103 -78 -27 -13 -48 -25 -48 -27 0 -7 302
-498 318 -516 14 -17 7 -18 -125 -18 l-140 0 -50 78 c-52 79 -213 331 -264
412 -131 207 -147 235 -136 242 7 4 69 8 138 8 140 0 200 13 255 55 37 29 84
110 84 148 0 19 19 35 102 85 72 42 105 57 110 49 4 -7 8 -43 8 -81z m-450 -6
c29 -29 11 -60 -34 -60 -29 0 -36 5 -45 31 -16 46 -15 49 24 49 22 0 43 -8 55
-20z m-360 -459 c23 -36 74 -118 115 -181 41 -63 75 -118 75 -122 0 -5 -56 -8
-125 -8 l-124 0 -17 33 c-9 17 -52 94 -95 170 -44 75 -79 141 -79 146 0 4 30
18 68 31 37 12 74 26 82 31 20 11 50 -19 100 -100z"/>
<path d="M1805 2793 c-3 -10 -60 -115 -126 -234 -65 -119 -119 -219 -119 -223
0 -3 119 -6 265 -6 146 0 265 3 265 6 0 3 -46 87 -102 187 -56 100 -115 206
-131 235 -30 55 -41 62 -52 35z"/>
</g>
</svg>
